<svg id="a2d4ad2d-a961-475e-9742-0c21bdc57247" data-name="Layer 1" xmlns="http://www.w3.org/2000/svg" width="865.76" height="682.89" viewBox="0 0 865.76 682.89"><g id="be11d2cb-6c4d-488a-b1cb-cb768eea6fbc" data-name="freepik--background-complete--inject-196"><path d="M615.88,642.24c-2.11-1.81-6.83-7.55-3.18-14.24,1.33-2.44,4.15-3.66,6.71-4.73a26.94,26.94,0,0,0,7.35-3.82c4-3.39,5.1-9.05,7.76-13.59,3-5.2,8.72-9.11,14.69-8.82,6.88.31,12.62,5.88,15.22,12.33s2.69,13.53,2.75,20.44c0,3.83-.15,8.14-2.94,10.73s-6.49,2.41-10,2.3l-37.6-1.16" fill="#f5f5f5"/><path d="M687.8,538.85H588.92l17.81,106.2a11.87,11.87,0,0,0,8.43,9.46l.36.09c.29.07.57.17.88.23a13.45,13.45,0,0,0,2,.24v.09H663a14.08,14.08,0,0,0,2.42-.24,11.9,11.9,0,0,0,10-10.37L684,571.37l.38-2.94h0l3.4-29Zm-18.66,67.74H659l1-30.86h11.76Zm3.61-30.86h9.73l-3.63,30.86h-8.73Zm-29,65-.61-26.79h14.6l-.88,26.79ZM628,614h14.19l.62,26.79H630.05Zm1.08,26.79h-12L612.92,614h14Zm-1.67-34.18L625,575.73h16.29l.7,30.86Zm15.58,0-.71-30.86H659l-1,30.86Zm-.89-38.2-.64-28.55h18.78l-1,28.55Zm-1,0H624.45l-2.2-28.55h18.22Zm-17.63,0H605.83c-.63-4-1.22-7.69-1.76-11-1.84-11.53-2.53-15.88-2.94-17.51h20.12Zm.57,7.34,2.39,30.86H611.81c-.5-3.13-1-6.29-1.47-9.45-1.14-7.27-2.29-14.54-3.38-21.36Zm-13.23,30.86h-9.53l-5.17-30.86H606C607.46,585.3,609.14,595.89,610.81,606.59Zm1.17,7.35c1.46,9.27,2.93,18.41,4.2,26.79H607l-4.5-26.79Zm45.87,26.79.9-26.79h9.78l-2.27,26.79Zm2.41-72.39,1-28.55h13.62l-2.44,28.55Zm-60.08-28.55c.39,2.07,2.19,13.3,4.61,28.55h-9.92l-4.79-28.55Zm74.67,100.94h-7.64l2.28-26.79H678Zm8.49-72.39h-10l2.5-28.5h10.87Z" fill="#e0e0e0"/><rect x="532.33" y="43.89" width="186.85" height="295.29" fill="#e0e0e0"/><rect x="537.37" y="49.45" width="176.14" height="284.89" fill="#f5f5f5"/><rect x="625.45" y="66.04" width="70.24" height="108.99" fill="#fff"/><path d="M664.3,75.68a2.63,2.63,0,1,1-2.63-2.63,2.63,2.63,0,0,1,2.63,2.63Z" fill="#e0e0e0"/><rect x="554.65" y="205.35" width="70.24" height="108.99" fill="#fff"/><path d="M593.59,215a2.63,2.63,0,1,1-2.64-2.61h0A2.63,2.63,0,0,1,593.59,215Z" fill="#e0e0e0"/><rect x="553.71" y="66.04" width="59.98" height="85.11" fill="#fff"/><path d="M585.88,73.78a2.18,2.18,0,1,1-2.18-2.17,2.19,2.19,0,0,1,2.18,2.17Z" fill="#e0e0e0"/><rect x="635.64" y="210.32" width="64.57" height="35.77" transform="translate(-21.38 76.36) rotate(-6.44)" fill="#fff"/><path d="M668.9,217.21a2.24,2.24,0,1,1-2.25-2.22h0A2.24,2.24,0,0,1,668.9,217.21Z" fill="#e0e0e0"/><path d="M615.53,230.22c0,.29-11,.52-24.64.52s-24.63-.23-24.63-.52,11-.52,24.63-.52S615.53,229.94,615.53,230.22Z" fill="#e0e0e0"/><path d="M615.53,238c0,.29-11,.53-24.64.53s-24.63-.24-24.63-.53,11-.53,24.63-.53S615.53,237.72,615.53,238Z" fill="#e0e0e0"/><path d="M615.53,245.82c0,.28-11,.51-24.64.51s-24.63-.23-24.63-.51,11-.53,24.63-.53S615.53,245.53,615.53,245.82Z" fill="#e0e0e0"/><path d="M615.53,253.61c0,.29-11,.53-24.64.53s-24.63-.24-24.63-.53,11-.52,24.63-.52S615.53,253.33,615.53,253.61Z" fill="#e0e0e0"/><path d="M615.53,261.41c0,.29-11,.53-24.64.53s-24.63-.24-24.63-.53,11-.53,24.63-.53S615.53,261.12,615.53,261.41Z" fill="#e0e0e0"/><path d="M615.53,269.21c0,.28-11,.52-24.64.52s-24.63-.24-24.63-.52,11-.53,24.63-.53S615.53,268.92,615.53,269.21Z" fill="#e0e0e0"/><path d="M615.53,277c0,.3-11,.53-24.64.53s-24.63-.23-24.63-.53,11-.51,24.63-.51S615.53,276.72,615.53,277Z" fill="#e0e0e0"/><path d="M692,221.87c0,.28-10.86,2.06-24.32,3.95s-24.43,3.22-24.46,2.94,10.84-2.06,24.32-3.95S691.94,221.58,692,221.87Z" fill="#e0e0e0"/><path d="M693,226.75c0,.28-10.84,2.05-24.31,3.95s-24.43,3.22-24.47,2.94,10.84-2.06,24.32-3.95S692.91,226.45,693,226.75Z" fill="#e0e0e0"/><path d="M693.85,231.24c0,.3-10.84,2.06-24.32,4s-24.42,3.2-24.46,2.94,10.84-2.06,24.32-4S693.81,231,693.85,231.24Z" fill="#e0e0e0"/><path d="M689.5,88.84c0,.28-12.46.52-27.81.52s-27.84-.24-27.84-.52,12.45-.53,27.84-.53S689.5,88.55,689.5,88.84Z" fill="#e0e0e0"/><path d="M689.5,93.47c0,.3-12.46.53-27.81.53s-27.84-.23-27.84-.53S646.3,93,661.69,93,689.5,93.18,689.5,93.47Z" fill="#e0e0e0"/><path d="M689.5,98.11c0,.28-12.46.52-27.81.52s-27.84-.24-27.84-.52,12.45-.52,27.84-.52S689.5,97.82,689.5,98.11Z" fill="#e0e0e0"/><path d="M689.5,102.74c0,.3-12.46.53-27.81.53s-27.84-.23-27.84-.53,12.45-.51,27.84-.51S689.5,102.46,689.5,102.74Z" fill="#e0e0e0"/><path d="M689.5,107.39c0,.28-12.46.51-27.81.51s-27.84-.23-27.84-.51,12.45-.53,27.84-.53S689.5,107.09,689.5,107.39Z" fill="#e0e0e0"/><path d="M689.5,112c0,.29-12.46.52-27.81.52s-27.84-.23-27.84-.52,12.45-.52,27.84-.52S689.5,111.74,689.5,112Z" fill="#e0e0e0"/><path d="M689.5,116.66c0,.28-12.46.51-27.81.51s-27.84-.23-27.84-.51,12.45-.53,27.84-.53S689.5,116.39,689.5,116.66Z" fill="#e0e0e0"/><path d="M689.5,130.41c0,.3-12.46.53-27.81.53s-27.84-.23-27.84-.53,12.45-.51,27.84-.51S689.5,130.13,689.5,130.41Z" fill="#e0e0e0"/><path d="M689.9,135.31c0,.29-12.46.52-27.83.52s-27.83-.23-27.83-.52,12.46-.52,27.83-.52S689.9,135,689.9,135.31Z" fill="#e0e0e0"/><path d="M690.3,140.21c0,.28-12.47.52-27.84.52s-27.83-.24-27.83-.52,12.46-.53,27.83-.53S690.3,139.9,690.3,140.21Z" fill="#e0e0e0"/><path d="M690.68,145.11c0,.29-12.46.53-27.82.53S635,145.4,635,145.11s12.45-.53,27.83-.53S690.68,144.81,690.68,145.11Z" fill="#e0e0e0"/><path d="M691.07,150c0,.29-12.46.53-27.83.53s-27.83-.24-27.83-.53,12.46-.51,27.83-.51S691.07,149.72,691.07,150Z" fill="#e0e0e0"/><path d="M691.47,154.91c0,.28-12.46.51-27.83.51s-27.83-.23-27.83-.51,12.46-.53,27.83-.53S691.47,154.6,691.47,154.91Z" fill="#e0e0e0"/><rect x="384.73" y="36" width="25.8" height="621.23" fill="#e0e0e0"/><rect x="127.87" y="62.2" width="256.85" height="595.01" fill="#ebebeb"/><rect x="111.3" y="36" width="23.78" height="621.23" fill="#e0e0e0"/><rect x="111.3" y="36" width="299.22" height="26.21" fill="#e0e0e0"/><path d="M410.52,36a12.58,12.58,0,0,1-1,1l-2.79,2.63-9.24,8.67c-3.59,3.39-6.79,6.52-9,8.9a29.82,29.82,0,0,0-2.45,2.94,6,6,0,0,0-.53.88.73.73,0,0,1-.15.35,1.28,1.28,0,0,1,0-.39,5.2,5.2,0,0,1,.43-1,22.83,22.83,0,0,1,2.32-3.13c2.11-2.5,5.27-5.7,8.81-9.11s6.95-6.38,9.41-8.5c1.23-1,2.23-1.89,2.94-2.46A4.71,4.71,0,0,1,410.52,36Z" fill="#ebebeb"/><path d="M135.13,62.75C135,62.89,129.54,57,123,49.62S111.21,36.13,111.36,36s5.6,5.72,12.15,13.11S135.22,62.6,135.13,62.75Z" fill="#ebebeb"/><path d="M150.46,412.41h0a8.67,8.67,0,0,1-8.66-8.64V341.58a8.67,8.67,0,0,1,8.66-8.64h0a8.66,8.66,0,0,1,8.64,8.64v62.19a8.64,8.64,0,0,1-8.64,8.64Z" fill="#e0e0e0"/><path d="M154,392.89a2.94,2.94,0,0,0-5.88,0,3,3,0,0,0,1.66,2.69v3.5a1.33,1.33,0,0,0,1.31,1.35h0a1.34,1.34,0,0,0,1.31-1.35v-3.5A3,3,0,0,0,154,392.89Z" fill="#ebebeb"/><rect x="150.22" y="359.72" width="47.58" height="9.51" rx="4.66" fill="#e0e0e0"/><path d="M167.46,369.49a5.56,5.56,0,0,1-1.47.13l-3.94.18a34.9,34.9,0,0,1-5.87-.21,12.54,12.54,0,0,1-3.41-.9,6.08,6.08,0,0,1-2.94-2.61,4.69,4.69,0,0,1-.19-4,3.25,3.25,0,0,1,1.32-1.47,7.84,7.84,0,0,1,1.62-.72,17.66,17.66,0,0,1,5.87-.72c1.68,0,2.94.09,4,.14a6.1,6.1,0,0,1,1.47.18,46.1,46.1,0,0,1-5.38.22,18.77,18.77,0,0,0-5.67.84,3.84,3.84,0,0,0-2.5,1.85,3.9,3.9,0,0,0,.17,3.35,5.49,5.49,0,0,0,2.59,2.29,12.09,12.09,0,0,0,3.23.88,37.45,37.45,0,0,0,5.79.37A27.34,27.34,0,0,1,167.46,369.49Z" fill="#ebebeb"/><rect x="168.75" y="97.66" width="184.32" height="190.79" fill="#fafafa"/></g><path d="M632.45,218.52s-23.21,2.3-48.52,33.77l6.5,1A155.09,155.09,0,0,1,632.45,218.52Z" fill="#2f2e41"/><path d="M577,280.39s-13.1,3-7.9-14.88c0,0,7-22,21.32-12.24C590.43,253.27,579.6,266.44,577,280.39Z" fill="#f9b499"/><path d="M669.59,208.44l-.1,5.83c-14.33,6-29.83,17.4-41,26.49h0c-9.21,7.55-15.41,13.48-15.41,13.48L601,252.94c.75-1.35,1.89-3.33,3.41-5.65,5.75-8.77,11.76-14.47,16.8-19.19,2.74-2.57,6.51-5.91,11.27-9.58l2.61-37.37,2.42-1.15c2.69,16.31,12,28.52,24.09,29.49A19.53,19.53,0,0,0,669.59,208.44Z" fill="#f9b499"/><path d="M628.86,240.39l-.33.37h0c-9.21,7.55-15.41,13.48-15.41,13.48L601,252.94a58.09,58.09,0,0,1,3.41-5.65l4.68,1.68C612.15,252,628.86,240.39,628.86,240.39Z" fill="#f7a48b"/><path d="M698.34,495.08s14.34-1.35,23-9.75c0,0,5.85-6.86,11.11,1.1a18.18,18.18,0,0,1,1.58,3.07c1.13,2.71,3.89,9.48,7,18.11l-27.17,4.26-3,0S711.65,500.37,698.34,495.08Z" fill="#F6AE84"/><path d="M698.34,495.08s14.34-1.35,23-9.75c0,0,5.85-6.86,11.11,1.1a18.18,18.18,0,0,1,1.58,3.07c1.13,2.71,3.89,9.48,7,18.11l-27.17,4.26-3,0S711.65,500.37,698.34,495.08Z" opacity="0.2"/><path d="M597.59,445.36s-53,93.14-18.19,105.56l36.65-96.44-6.82-12.72Z" fill="#f7a48b"/><path d="M604.62,386.34s6.08,22.31,5.65,34.11l-12.68,24.91,10.49,7.87s33.86,3.34,65.2,17.8a3.43,3.43,0,0,0,3.84-.62c9.65-9.28,55.08-56.83,19.1-97.62l-8.59-6.1-53.76,8.74Z" fill="#2f2e41"/><path d="M677.12,470.41l-40.73,43.83s13.44-4.35,41.11-1.58l36.37-.79s7.9,17.78-2,27.66c0,0-45.31,6.43-67.8,13.85a83.13,83.13,0,0,1-9.7,2.62c-12.33,2.46-39.65,6.18-55-5.08-7.71-5.66-10.3-16-6.78-24.93,7.17-18.09,24-58.88,35.46-72.76,0,0,36.08,3.85,65.2,17.8A3.53,3.53,0,0,0,677.12,470.41Z" fill="#f9b499"/><path d="M646.54,503s37.05-1.64,51.8-7.87c0,0,12.57,4.05,12.57,16.83l-33.41.75s-27-2-41.11,1.58Z" fill="#f7a48b"/><path d="M726.28,482.44s9-4.92,14.47,5.21l8.39,18.81-8.1,1.15-7-18.11S731.49,482.44,726.28,482.44Z" fill="#2f2e41"/><path d="M726.28,482.44s9-4.92,14.47,5.21l8.39,18.81-8.1,1.15-7-18.11S731.49,482.44,726.28,482.44Z" opacity="0.2"/><path d="M636.39,514.24c-1.54,2.1-3.16,4.14-4.79,6.16s-3.31,4-5,6-3.41,3.92-5.17,5.84l-2.65,2.86c-.91.94-1.8,1.89-2.73,2.8.76-1.06,1.57-2.08,2.36-3.12l2.43-3c1.63-2,3.32-4,5-6s3.41-3.92,5.18-5.84S634.54,516.07,636.39,514.24Z" fill="#f7a48b"/><path d="M406,513.75s-8.94-8.32-13,.67a14.7,14.7,0,0,0-1.23,5.67c-.17,5.3-.76,19.49-2.16,22.69a18.11,18.11,0,0,1,5.48,0s4.57-11.76,14.73-18Z" fill="#e6e7e8"/><path d="M405.93,513.67s-9.86,1.2-8.87,17.75l-1.93,11.4a44.67,44.67,0,0,1,14.73-18Z" fill="#F6AE84"/><path d="M497.08,467.9l-37.82-32.2-33,5.24-16.44-1.14s-30.77,12.58-18.05,28.68c0,0,12.81,43.2,18.05,56.34,0,0-10.74,7.33-14.73,18a21.73,21.73,0,0,0-1.37,9.68s-2.66,17.58,19.1,17.58a75.1,75.1,0,0,0,24.08.12,19.16,19.16,0,0,0,10.81-5.65A31.13,31.13,0,0,0,451.4,560s2.62,10.48,19.86,16.86c0,0,23.56,10.57,34.58,18.42a49.52,49.52,0,0,0,16.62,7.86c9.31,2.34,20.72,2.07,24.6-11.15a28.15,28.15,0,0,0,.4-13.62C544.11,562.08,531,508.41,497.08,467.9Zm-33.56,73.25a37.53,37.53,0,0,0,0-5,38.68,38.68,0,0,0-1.14-7,25.57,25.57,0,0,0-1.24-3.36c-2.73-6.56-4.44-16.87-4.44-16.87,5.29,2.75,23.91,34.61,23.91,34.61Z" fill="#2f2e41"/><path d="M395.13,542.82s-14.13-3-17.83,11.82c0,0-.74,17.78-7.41,27.17,0,0-15.32,27.91,0,45.45,0,0,10.6,15.4,19.74-3.86l-4.92-39.12S390.39,567,390.63,566,385.54,554.71,395.13,542.82Z" fill="#e6e7e8"/><path d="M455.15,501.59l1.52,6.51c.54,2.17,1,4.33,1.62,6.48s1.21,4.28,1.86,6.4a45.92,45.92,0,0,0,2.32,6.16v.05a30.62,30.62,0,0,1,1.8,9.29,28.4,28.4,0,0,1-1.12,9.39,27.51,27.51,0,0,1-1.82,4.38,25.54,25.54,0,0,1-2.72,3.86A26.58,26.58,0,0,1,451.4,560l1.83-1.44a14.77,14.77,0,0,0,1.77-1.48l1.61-1.64a5.15,5.15,0,0,0,.75-.87l.7-.91a24.43,24.43,0,0,0,2.44-3.84,27.62,27.62,0,0,0,1.55-4.27,27.23,27.23,0,0,0,.94-9,38,38,0,0,0-.57-4.52,28.28,28.28,0,0,0-1.13-4.37l0,0a47.21,47.21,0,0,1-2.29-6.38c-.66-2.15-1.15-4.34-1.63-6.52s-.93-4.38-1.28-6.58S455.4,503.81,455.15,501.59Z" fill="#2f2e41"/><path d="M455.15,501.59l1.52,6.51c.54,2.17,1,4.33,1.62,6.48s1.21,4.28,1.86,6.4a45.92,45.92,0,0,0,2.32,6.16v.05a30.62,30.62,0,0,1,1.8,9.29,28.4,28.4,0,0,1-1.12,9.39,27.51,27.51,0,0,1-1.82,4.38,25.54,25.54,0,0,1-2.72,3.86A26.58,26.58,0,0,1,451.4,560l1.83-1.44a14.77,14.77,0,0,0,1.77-1.48l1.61-1.64a5.15,5.15,0,0,0,.75-.87l.7-.91a24.43,24.43,0,0,0,2.44-3.84,27.62,27.62,0,0,0,1.55-4.27,27.23,27.23,0,0,0,.94-9,38,38,0,0,0-.57-4.52,28.28,28.28,0,0,0-1.13-4.37l0,0a47.21,47.21,0,0,1-2.29-6.38c-.66-2.15-1.15-4.34-1.63-6.52s-.93-4.38-1.28-6.58S455.4,503.81,455.15,501.59Z" opacity="0.2"/><path d="M480.61,543.52c2.22,2.5,4.28,5.14,6.3,7.8s3.94,5.41,5.81,8.18,3.64,5.61,5.3,8.52a94,94,0,0,1,4.57,8.94l-5.47-8.39-5.54-8.31-5.53-8.33-2.75-4.18Z" opacity="0.2"/><path d="M456.79,555a71.32,71.32,0,0,1,11.33,1.74,73,73,0,0,1,11,3.43,58.1,58.1,0,0,1,10.15,5.47,41.21,41.21,0,0,1,8.44,7.93v0l0,0a51.55,51.55,0,0,0,3.88,5.43,23.94,23.94,0,0,0,4.71,4.57,6.2,6.2,0,0,0,2.79,1.16,2.16,2.16,0,0,0,2.22-1,2.1,2.1,0,0,0,.15-1.27l-.39-1.59c-.29-1.08-.58-2.16-.9-3.24a159.11,159.11,0,0,0-9.79-25.06,179,179,0,0,0-13.66-23.22,182.68,182.68,0,0,0-17.08-20.91,156.92,156.92,0,0,1,17.75,20.43,159.35,159.35,0,0,1,14.09,23.16,151,151,0,0,1,10,25.23c.32,1.09.6,2.19.89,3.29.13.57.27,1.06.4,1.69a3.44,3.44,0,0,1-.27,2,2.76,2.76,0,0,1-1.54,1.43,3.91,3.91,0,0,1-2,.3,7.49,7.49,0,0,1-3.39-1.39,25.2,25.2,0,0,1-4.94-4.84,53.32,53.32,0,0,1-3.94-5.61l0,.06a41.12,41.12,0,0,0-8.07-7.85,56.09,56.09,0,0,0-9.88-5.57A80.21,80.21,0,0,0,468,557.15,78.06,78.06,0,0,0,456.79,555Z" opacity="0.2"/><path d="M399.21,455.31a24.4,24.4,0,0,1,2.5,4.64c.69,1.62,1.31,3.26,1.9,4.92,1.18,3.32,2.16,6.7,3.08,10.1l1.32,5.11,1.21,5.13q1.13,5.16,2.11,10.34c1.3,6.91,2.53,13.83,3.51,20.79s2,13.92,2.77,20.9l0-.1a7.45,7.45,0,0,1,.09,3.72,5.73,5.73,0,0,1-2,3.14,11.46,11.46,0,0,1-6.9,1.73l-1.77-.07-1.74-.23a13,13,0,0,0-1.7-.16,5.88,5.88,0,0,0-1.66.27,7,7,0,0,0-4.4,4.92,9.21,9.21,0,0,1,1.45-3.17,6.09,6.09,0,0,1,2.83-2.09,6.66,6.66,0,0,1,1.76-.37,12.94,12.94,0,0,1,1.78.09l1.72.15h1.73a10.88,10.88,0,0,0,6.36-1.73,5.47,5.47,0,0,0,1.44-5.86v-.1L415.1,527c-.47-3.48-1-6.94-1.55-10.41-1.1-6.93-2.19-13.86-3.44-20.76s-2.61-13.78-4.26-20.6q-1.23-5.1-2.72-10.15c-.52-1.67-1.07-3.33-1.68-5A27.48,27.48,0,0,0,399.21,455.31Z" opacity="0.2"/><path d="M412.86,570.08c-3.76,11-17.77,42.61-17.77,42.61-6.91,22-17.32,10.86-17.32,10.86-7.15-5.68-7.89-15.81-6.84-24.52a69.43,69.43,0,0,1,6.21-20.37,55.44,55.44,0,0,0,4.36-16.14c3-18.26,13.59-19.74,13.59-19.74l0,0a21.73,21.73,0,0,0-1.37,9.68S391.1,570.08,412.86,570.08Z" fill="#F6AE84"/><path d="M409.86,524.82s2.32,6.21,4.78,9.35" fill="none" stroke="#263238" stroke-miterlimit="10" stroke-width="0.25"/><path d="M544.1,330.58s-9.91-8.13-8.54-18.77l1.54-.22a17.82,17.82,0,0,1,9.45-1.9c1.17.1,2.12.29,2.35.64.69,1,6.18,9.61,6.18,12.36S544.1,330.58,544.1,330.58Z" fill="#f7a48b"/><path d="M539.84,300.46s-8.31-1.82-9.15,2.4a3.46,3.46,0,0,0,3.08,4,18,18,0,0,0,3.46.05s-2.44-1.16.34-4.12A4.23,4.23,0,0,1,539.84,300.46Z" fill="#f7a48b"/><path d="M526.22,359.42l.37,9.27a114.57,114.57,0,0,0,18.19-27.95,8.86,8.86,0,0,0,.32-6.25c-1.17-3.7-2.73-10.16-1.35-15.24,0,0,2.06-6.86-4.12-6.52,0,0-9.61,0-2.4-5.84,0,0-3.09-1,.34-4.12,0,0-.68-2.06,3.78-2.74,0,0-1-2.4,4.81-2.06,0,0,12-2.4,13,8.24,0,0-1.37,16.48,0,20.94,0,0,1.37,11.67-2.06,18.54a261.45,261.45,0,0,0-7.89,28.15s-8.72,28.31-20.07,40a11.11,11.11,0,0,1-15.5.34A33.11,33.11,0,0,1,505,401l-5.84-22.32,3.39-15.34A36.83,36.83,0,0,1,526.22,359.42Z" fill="#f9b499"/><path d="M537.23,306.89a16.31,16.31,0,0,1,4.91-.72,15.68,15.68,0,0,1,4.91.64,17.81,17.81,0,0,1-9.82.08Z" fill="#f7a48b"/><path d="M537.7,302.77a27.8,27.8,0,0,1,6.47-.64,27.33,27.33,0,0,1,6.46.71,27.34,27.34,0,0,1-6.47.65A26.78,26.78,0,0,1,537.7,302.77Z" fill="#f7a48b"/><path d="M473.39,272.1a18.73,18.73,0,0,1,4.38,5.29,32.45,32.45,0,0,0,16.81,14.21c.42.16.87.31,1.32.47,0,0,21.13,4.7,24.76,27,0,0,2.9,21.53,6.53,30.72,0,0,4.59,8-1,9.67,0,0-10.89-2.17-23.71,3.88,0,0-4.59,21.77-6.05,31,0,0-2.66,18.39,1.7,35.32,0,0,3.5,18.67,4.13,29.86a8.65,8.65,0,0,1-4.93,8.37,84.24,84.24,0,0,1-20,6.28s-6.77,2.18-9.19-10.64c0,0-18.26,1.89-40.9-9.78a31.23,31.23,0,0,0-14-3.45c-10.85-.07-27,2.51-21,19.52,0,0-8.47-4.84-3.63-20.32,0,0,12.1-23.23,7.26-42.1l-11.58-56.23s-9.83,3.93-11.86,6.78a138.41,138.41,0,0,1,3.25-16.27s3.05-11.8,4.68-31.33c0,0,1.22-15.87,18.31-23.6,0,0,24-11,27.66-15.05,0,0,3.56-6.34,7.48-4.59l29.14,7.84Z" fill="#F6AE84"/><path d="M411.16,327.05a68.39,68.39,0,0,1,1.67,9.21,69.7,69.7,0,0,1,.5,9.37,40.63,40.63,0,0,1-1.14,9.36,21.4,21.4,0,0,1-1.66,4.44,10,10,0,0,1-3.08,3.56,10.77,10.77,0,0,0,2.47-3.84,20.76,20.76,0,0,0,1.24-4.39,58.29,58.29,0,0,0,.81-9.16c.06-3.08-.05-6.16-.18-9.26-.07-1.54-.17-3.09-.29-4.64S411.27,328.61,411.16,327.05Z" opacity="0.2"/><path d="M372.39,357.87s-2.17,5.29,3.12,5.49c.25-1.27.49-2.59.7-4,.27-1.72.48-3.39.65-5a10.71,10.71,0,0,0-3.14,2A10.11,10.11,0,0,0,372.39,357.87Z" fill="#F6AE84"/><path d="M372.39,357.87s-2.17,5.29,3.12,5.49c.25-1.27.49-2.59.7-4,.27-1.72.48-3.39.65-5a10.71,10.71,0,0,0-3.14,2A10.11,10.11,0,0,0,372.39,357.87Z" opacity="0.2"/><path d="M316.56,476.18a3,3,0,0,1-1.71,2.5,2.45,2.45,0,0,1-1.48.34c-2.05-.07-5.08-1-8.31-4.9a11.5,11.5,0,0,0-6.23-4c-6.68-1.6-20.16-5.05-27-9.08l.42-10.06-9.19-14.85s-4.86-8.12,7-13.78c0,0,6.31,1.65,12.07,10.38a47.69,47.69,0,0,0,8.49,10,58.65,58.65,0,0,0,6.21,4.74S317.44,464.29,316.56,476.18Z" fill="#F6AE84"/><path d="M314.85,478.68h0a3,3,0,0,0,1.71-2.5c.88-11.89-19.7-28.67-19.7-28.67a57.35,57.35,0,0,1-6-4.55,46.36,46.36,0,0,1-8.53-9.94c-5.81-9-12.24-10.65-12.24-10.65s.56-9.76,10-3c0,0,12.15,12.72,17.28,19.74,0,0,1.93,3.39,8.32,7.86a22.51,22.51,0,0,1,2.48,2C313.39,453.82,331.44,472.14,314.85,478.68Z" fill="#2f2e41"/><path d="M253.61,439.65a43.08,43.08,0,0,0,9.46-3.51s16.3,5.19,18.21,14.7a2.11,2.11,0,0,1-1.34,2.4c-1.52.57-3.67,2-3.9,5.84a2.81,2.81,0,0,1-2.54,2.73,2,2,0,0,1-1.66-.74,6,6,0,0,0-4.65-2.43c-3.18.1-8,.43-8.77,1.09C258.42,459.73,258.48,443.16,253.61,439.65Z" fill="#f9b499"/><path d="M229.07,437.29l21.52,1a6.18,6.18,0,0,1,5.51,4.12c5,14.13,2.18,24.92.34,29.58a5.09,5.09,0,0,1-3.68,3.07l-20.26,4.39c2.65,14.81-4.56,31.13-4.56,31.13l-79-1.13c-30.37-1.14-22.4-29.23-22.4-29.23,5.33-21.93,32.87-73.82,42.35-91.31A26.16,26.16,0,0,0,172,378.56c.8-10.14,5.42-33.14,5.42-33.14l28.46-18.6,49,20.5L258,359a52.56,52.56,0,0,1,2.66,6.18c4.77,13.19,3.1,25.42-1.32,35.93C250.13,422.93,229.07,437.29,229.07,437.29Z" fill="#2f2e41"/><path d="M263.9,484.8s15.39-4.88,14.85,14c-.49,17.32-3.7,23.09-3,31.82a36.83,36.83,0,0,1-.26,7.78c-1.33,10-5.46,30-16.76,23.67L265,521Z" fill="#2f2e41"/><path d="M250.91,515.06s-3.91-.19-4.75,1.75a.45.45,0,0,1-.79.11,18.73,18.73,0,0,0-17.43-6.38A87.57,87.57,0,0,0,232.76,486a22.35,22.35,0,0,0,19,2.32s8.65,4.33,8.92,13.25C260.63,501.54,264.43,514.26,250.91,515.06Z" fill="#f9b499"/><path d="M196.81,386.8c-9.86,17-19.88,34-29.92,50.92l-7.57,12.68-3.79,6.33a28.67,28.67,0,0,0-3.17,6.49,21.77,21.77,0,0,0,0,14.06,18.9,18.9,0,0,0,1.5,3.23l1.83,3.21,3.68,6.4,0,.13a3,3,0,0,0,.71.86,5.08,5.08,0,0,0,1.1.75,11.38,11.38,0,0,0,2.59,1,25.68,25.68,0,0,0,5.7.66,51.41,51.41,0,0,0,5.81-.24c1.94-.16,3.86-.47,5.79-.73h-.05c17.12-4.43,34.23-8.87,51.39-13.13-17,4.86-34.05,9.53-51.1,14.21h0c-2,.31-3.9.62-5.87.8a53.52,53.52,0,0,1-5.95.28,27,27,0,0,1-6-.68,12.48,12.48,0,0,1-2.89-1.08,6.54,6.54,0,0,1-1.33-.91,3.57,3.57,0,0,1-1.08-1.43l.05.13-3.7-6.39-1.86-3.19a20.35,20.35,0,0,1-1.61-3.44,22.62,22.62,0,0,1,0-14.93,30.36,30.36,0,0,1,3.33-6.73l3.82-6.32,7.63-12.63Q181.24,411.89,196.81,386.8Z" opacity="0.2"/><path d="M241.6,360.61a44.61,44.61,0,0,1,1.68,11.84,50.6,50.6,0,0,1-1.18,11.95,51.28,51.28,0,0,1-10.64,21.42c-9.83,12.56-19.55,25.24-28.62,38.35-2.27,3.27-4.51,6.57-6.64,9.93a98,98,0,0,0-5.87,10.34,23.9,23.9,0,0,0-1.1,2.7,8.08,8.08,0,0,0-.39,1.37l-.14.67a.75.75,0,0,0,.07.42,1,1,0,0,0,.69.53,1.26,1.26,0,0,0,.5,0l.73-.17,2.92-.69c3.88-.91,7.78-1.8,11.67-2.66,15.6-3.45,31.19-7,46.95-9.55-7.83,1.53-15.62,3.29-23.39,5.1s-15.56,3.61-23.32,5.47l-11.64,2.79-2.91.7-.73.18a2.43,2.43,0,0,1-1,.05,2.19,2.19,0,0,1-1.6-1.22,1.92,1.92,0,0,1-.17-1c0-.3.1-.54.15-.8a10.14,10.14,0,0,1,.42-1.51,24.38,24.38,0,0,1,1.14-2.84,99.68,99.68,0,0,1,5.89-10.51c2.13-3.4,4.36-6.72,6.63-10,9.19-13.09,18.9-25.79,28.92-38.23a50.55,50.55,0,0,0,10.81-20.92,49.79,49.79,0,0,0,1.47-11.8A47.27,47.27,0,0,0,241.6,360.61Z" opacity="0.2"/><path d="M229.08,437.29A74.55,74.55,0,0,1,220,447.65a64.27,64.27,0,0,1-5.21,4.53,32.32,32.32,0,0,1-5.83,3.71c1.8-1.44,3.46-3,5.14-4.53s3.32-3.11,5-4.7C222.36,443.53,225.61,440.32,229.08,437.29Z" opacity="0.2"/><path d="M270.09,512.89c-2.43,43.26-11.36,49.22-11.36,49.22-8.62,0-5.66-11.36-5.66-11.36,1.37-12.19-6.91-33.94-6.91-33.94.84-1.94,4.75-1.75,4.75-1.75,13.52-.8,9.72-13.52,9.72-13.52-.27-8.92-8.92-13.25-8.92-13.25.57-4.86,12.19-3.49,12.19-3.49C276.31,488,270.09,512.89,270.09,512.89Z" fill="#F6AE84"/><path d="M316,201.73c6-5.47.29-9.21.29-9.21-2-5.46-6.91-3.45-6.91-3.45-1.43-6.9-6.61-.29-6.61-.29a2.32,2.32,0,0,1-2.4.51,1.73,1.73,0,0,1-1.22-1.52l-.7-7.33c-.2-10.89-3.26-12.51-5.15-12.47a1.5,1.5,0,0,0-1.45,1.52l.56,38.86c.29,10.35,4.32,12.37,4.32,12.37,4,4.31,2.58,6.9,2.58,6.9-5.46,32.22-4.62,48.59-4.62,48.59a25.46,25.46,0,0,0-11.49,8.45,24.45,24.45,0,0,0-3.55,6.63s4.76,5.12,5.49,8c0,0,11,23.83,23.52,19.15,0,0,15.09-4.43,8.58-46.57,0,0-2.43-39-3.14-49.53a2.58,2.58,0,0,1,.89-2.08c.69-.63,1.46-2.12,1.3-5.55Z" fill="#f9b499"/><path d="M294.69,276.21a68.67,68.67,0,0,1-2.18,16.48,60.54,60.54,0,0,1,.59-8.31A62.34,62.34,0,0,1,294.69,276.21Z" fill="#f7a48b"/><path d="M246,209.38c-7.93,6.08-18.9,2.63-18.9,2.63-9.94-3.42-15.34-2-16-1.86l-.28-.17a26.2,26.2,0,0,0,5-12.51,32.38,32.38,0,0,0,.1-8.44c8.17,5.71,15.39,4.39,19.58,2.7a16.89,16.89,0,0,0,3.8-2.1l2.48,1.22C241,200.22,246,209.38,246,209.38Z" fill="#f9b499"/><path d="M235.52,191.73c-3.54,3.47-9.59,6.7-19.68,5.74a32.38,32.38,0,0,0,.1-8.44C224.11,194.74,231.33,193.42,235.52,191.73Z" fill="#f7a48b"/><ellipse cx="228.86" cy="161.74" rx="31.47" ry="24.53" transform="translate(51.49 378.71) rotate(-85.98)" fill="#f9b499"/><path d="M207.51,178.27a16.11,16.11,0,0,1-12.17-7.59,1.17,1.17,0,0,1,.4-1.66c1-.51,2.28-2.17,1.9-7.32,0,0-.94-6.88,3.44-9.69,0,0,1-1.81-3.25-2.38a.46.46,0,0,1-.2-.83c1.58-1.07,4.45-3.58,7.29-8.93a38.47,38.47,0,0,1,10.76-13c5.79-4.33,14.11-8.06,24.16-5.54,0,0,12.51-.94,19.7,12.82,0,0,2.55,10.2,11.34,13.33a.54.54,0,0,1-.05,1c-1.64.39-3.26,1.27-3,3.26a1.3,1.3,0,0,0,.38.72c.85.8,3.34,4,2.86,13.22,0,0,.25,10.38,4.69,12.68a.66.66,0,0,1,.08,1.19,8.84,8.84,0,0,0-4.15,4s-5.58,7.06-15.32,3.5a1.09,1.09,0,0,0-1.35.45c-1.27,2.14-5.61,7.41-15.71,2.11,0,0,11-5.7,13.63-23.6l.33-7.33a2.38,2.38,0,0,0-1.28-2.23c-2.16-1.11-6.08-3.75-5.11-8a2,2,0,0,0-1.22-2.44,12.56,12.56,0,0,1-7.11-6.31A9.35,9.35,0,0,0,236,136.7c-2.08-1.6-5.4-3.06-8.64.05,0,0-12.2-7.93-18.71,14.85C208.63,151.6,205.1,162,207.51,178.27Z" fill="#2f2e41"/><path d="M176.41,282s-1.36,1.26-5.33-3.79l3.73-3.25A17.57,17.57,0,0,1,176.41,282Z" fill="#F6AE84"/><path d="M176.41,282s-1.36,1.26-5.33-3.79l3.73-3.25A17.57,17.57,0,0,1,176.41,282Z" opacity="0.2"/><path d="M296.83,243.9c-1.47,10.85-2.14,32.31-2.14,32.31a34,34,0,0,0-15,15.08l4.22,4.78c-6.95,3.61-10.86-6.91-10.86-6.91l-5.7-12.34L256.76,304.2c-6.61,20.16-1.48,34-1.48,34C261.88,351.17,258,359,258,359c-11.43-13.55-51.75-14.77-51.75-14.77-20.17,4.52-25.9,2.43-25.9,2.43-12.65-3.91-8.43-10.25-8.43-10.25,16-24.64,9.64-56.88,9.64-56.88L176.41,282c0-9.54-11.74-23.17-11.74-23.17-3-5.73-5.73-2.12-5.73-2.12a7.78,7.78,0,0,1,2.43-6.91c4.82-6,20.16-26.81,20.16-26.81,11.43-15.65,29.55-12.76,29.55-12.76l.07,0c.65-.15,6-1.56,16,1.86,0,0,11,3.46,18.91-2.62,33.53-4.55,41.12,15.68,41.12,15.68C292.87,238,296.83,243.9,296.83,243.9Z" fill="#F6AE84"/><path d="M181.53,279.52a57.5,57.5,0,0,1-1.4-7.38,60.74,60.74,0,0,1-.53-7.51,44.66,44.66,0,0,1,.55-7.56,26.64,26.64,0,0,1,2.29-7.29l0,.05c1-2.43,2-4.84,3.05-7.25s2.11-4.79,3.22-7.17c-.78,2.51-1.58,5-2.46,7.47s-1.73,5-2.65,7.4h0l0,0a28.28,28.28,0,0,0-2.06,7,52.85,52.85,0,0,0-.68,7.34c-.07,2.47,0,4.95.1,7.43S181.24,277,181.53,279.52Z" opacity="0.2"/><path d="M273.73,255.75a79.55,79.55,0,0,1-2.56,10.74,76.55,76.55,0,0,1-3.86,10.33,88.47,88.47,0,0,1,6.42-21.07Z" opacity="0.2"/><path d="M316.29,192.52a22.62,22.62,0,0,1-1.57,5.24,19.66,19.66,0,0,1-1.24,2.47,9.58,9.58,0,0,1-1.76,2.27l.13-.71a1.78,1.78,0,0,0,.65.72,1.67,1.67,0,0,0,1,.2,6.74,6.74,0,0,0,2.46-1,6.87,6.87,0,0,1-1,1.05,3.71,3.71,0,0,1-1.32.74,2.4,2.4,0,0,1-1.67,0,2.59,2.59,0,0,1-1.31-1.18l-.2-.34.34-.37a12.42,12.42,0,0,0,1.44-2.07c.46-.74.88-1.52,1.31-2.3C314.48,195.67,315.31,194.08,316.29,192.52Z" fill="#f7a48b"/><path d="M311.29,202.05a6.59,6.59,0,0,1-2.09,1.08,3.79,3.79,0,0,1-1.27.16,2,2,0,0,1-1.32-.59,3.37,3.37,0,0,1-.7-2.6,16.83,16.83,0,0,1,.47-2.33,54.9,54.9,0,0,1,3-8.7,53.33,53.33,0,0,1-1.67,9,16.43,16.43,0,0,0-.51,2.14,2.57,2.57,0,0,0,.2,1.75,1.84,1.84,0,0,0,1.68.5A11.05,11.05,0,0,0,311.29,202.05Z" fill="#f7a48b"/><path d="M296,199.47s1.89-4.1,8.81-6.64c0,0,2.84-1.79,5.46-1.48a1.32,1.32,0,0,1,1.12,1.54c-.21,1.09-1.14,2.73-4.36,4.34a7.08,7.08,0,0,0-3.54,3.61c-.58,1.48-.44,3,2.41,3.38" fill="#f9b499"/><path d="M296,199.47a9,9,0,0,1,1.57-2.35,13.7,13.7,0,0,1,2.09-1.94,19,19,0,0,1,2.41-1.55,20.4,20.4,0,0,1,2.59-1.22l-.08,0a11.58,11.58,0,0,1,2.9-1.29,8.6,8.6,0,0,1,1.59-.31,5.75,5.75,0,0,1,.83,0l.42,0a1.55,1.55,0,0,1,.51.14,1.8,1.8,0,0,1,1.07,1.67,3.65,3.65,0,0,1-.58,1.68,7.35,7.35,0,0,1-2.32,2.26c-.87.6-1.87,1-2.68,1.48a6.77,6.77,0,0,0-2.11,2,5,5,0,0,0-.63,1.3,2.16,2.16,0,0,0-.07,1.37,1.74,1.74,0,0,0,.95,1,5.79,5.79,0,0,0,1.44.47,5.31,5.31,0,0,1-1.52-.29,2.11,2.11,0,0,1-1.2-1.06,2.61,2.61,0,0,1-.09-1.63,6,6,0,0,1,.61-1.48,7.47,7.47,0,0,1,2.19-2.32c.9-.63,1.81-1,2.6-1.58a7.21,7.21,0,0,0,2-2,3,3,0,0,0,.43-1.19.85.85,0,0,0-.49-.75.88.88,0,0,0-.23-.07l-.34,0a5.45,5.45,0,0,0-.7,0,7.68,7.68,0,0,0-1.42.25,11.84,11.84,0,0,0-2.7,1.12l0,0,0,0c-.86.32-1.73.64-2.56,1a19.07,19.07,0,0,0-2.41,1.36A13.49,13.49,0,0,0,296,199.47Z" fill="#f7a48b"/><path d="M302.88,206a3.71,3.71,0,0,1,2.09,1.41,6.2,6.2,0,0,1,1.1,2.32,8.62,8.62,0,0,1,.2,2.52c0,.42-.1.83-.18,1.24s-.21.8-.36,1.19c-.07-.42-.1-.82-.13-1.22s-.09-.8-.11-1.2a21,21,0,0,0-.39-2.29,8.92,8.92,0,0,0-.78-2.13A6.23,6.23,0,0,0,302.88,206Z" fill="#f7a48b"/><path d="M158.94,256.66a79.14,79.14,0,0,1-17.65,12.66S140,238.15,143.09,227c0,0,1.44-10.09,4.33-15.14,0,0,4.32-5.76,3.06-20,0,0-1.8-12.43.54-20.54,0,0,1.57-6.45-1.31-7.3a1.64,1.64,0,0,0-1.51.31c-1.23,1.05-3.38,4.84-3.31,18.52,0,0-8.85-6.59-9.86.66a.41.41,0,0,1-.44.37c-1.39-.13-6-.2-6.27,4.38,0,0-3.61.36-1.62,8.11,0,0-.29,11.2,2.72,16.42a4.89,4.89,0,0,1,.54,3.89c-3,10-14.57,49.78-14.26,69.24,0,0-.54,22.16,23.79,9.91,0,0,27-11.89,35.32-20.9,0,0-2.51-7.26-10.14-16.13C164.67,258.78,162,253,158.94,256.66Z" fill="#f9b499"/><path d="M141.29,269.32a24.73,24.73,0,0,1-.84,6.1,24.31,24.31,0,0,1-2.17,5.77,24.73,24.73,0,0,1,.84-6.1A25.21,25.21,0,0,1,141.29,269.32Z" fill="#f7a48b"/><path d="M193.77,350.36c.08,3.47,0,6.91.16,10.35,0,1.71.16,3.42.33,5.12a20.83,20.83,0,0,0,1,5,13.22,13.22,0,0,1-1.8-4.91,32.68,32.68,0,0,1-.56-5.21A45.73,45.73,0,0,1,193.77,350.36Z" fill="#263238"/><path d="M206.68,349.6a36.63,36.63,0,0,0,31.51,8.73" fill="none" stroke="#263238" stroke-miterlimit="10" stroke-width="0.25"/><path d="M259.32,401.1c-6.34-4-3.75-7.84-3.75-7.84,6-11.75.07-24.71-1.67-28.05-.19-.39.29-.75.87-.69l5.87.65C265.41,378.36,263.74,390.59,259.32,401.1Z" opacity="0.2"/><path d="M126.7,196.35a24.4,24.4,0,0,0,2,1.64,9.13,9.13,0,0,0,2.22,1.17c.78.25,1.46.17,1.82-.37a4.59,4.59,0,0,0,.66-2.17l.19-1.87,1,1.67a2.11,2.11,0,0,0,.62.67.57.57,0,0,0,.59,0,2.27,2.27,0,0,0,.71-.66,7.93,7.93,0,0,0,.65-1l.13-.21.25-.1a4.43,4.43,0,0,0,1.86-1.86,9.37,9.37,0,0,0,1-2.8c.11-.49.14-1,.22-1.52l.07-1.55c0-1-.06-2.1-.1-3.17a22.14,22.14,0,0,1,.7,3.13,13.55,13.55,0,0,1,.1,3.25,8.77,8.77,0,0,1-.86,3.24,5.17,5.17,0,0,1-2.53,2.55l.38-.32a5,5,0,0,1-2,2.22,1.93,1.93,0,0,1-1.86-.09,3,3,0,0,1-1.08-1.23l1.21-.2a5.48,5.48,0,0,1-1.08,2.73,2.24,2.24,0,0,1-1.49.77,3,3,0,0,1-1.5-.3,7.77,7.77,0,0,1-2.23-1.61A13.21,13.21,0,0,1,126.7,196.35Z" fill="#f7a48b"/><path d="M128.32,188.24a4.45,4.45,0,0,1,2.4,1.3,10,10,0,0,1,1.69,2.11,12.42,12.42,0,0,1,1.12,2.43,10.09,10.09,0,0,1,.55,2.63,19.74,19.74,0,0,1-1.51-2.17l-1.33-2.18c-.42-.73-.87-1.43-1.33-2.13A11.38,11.38,0,0,0,128.32,188.24Z" fill="#f7a48b"/><path d="M136.41,206.12A17.87,17.87,0,0,0,137.6,199a12.34,12.34,0,0,0-2.23-6.23c-1.6-2.35-4.55-7.42-.36-7.55a5.12,5.12,0,0,1,3.21,1.1,27.63,27.63,0,0,1,6.74,7.82" fill="#f9b499"/><path d="M136.41,206.12a19.33,19.33,0,0,0,.86-4.55,12.66,12.66,0,0,0-.35-4.52A13.54,13.54,0,0,0,135,193a18.6,18.6,0,0,1-2.27-4.22,4.06,4.06,0,0,1-.18-2.6,2,2,0,0,1,1-1.12,4.38,4.38,0,0,1,.66-.24,5,5,0,0,1,.65-.08,6,6,0,0,1,4.48,1.91,26.53,26.53,0,0,1,5.67,7.46,40.92,40.92,0,0,0-2.87-3.66,24.4,24.4,0,0,0-3.3-3.21,8.64,8.64,0,0,0-1.85-1.21,4.11,4.11,0,0,0-2.06-.35c-.72,0-1.29.31-1.44.83a3.35,3.35,0,0,0,.2,2,18.51,18.51,0,0,0,2.11,4,13.06,13.06,0,0,1,1.92,4.39A15.37,15.37,0,0,1,136.41,206.12Z" fill="#f7a48b"/><path d="M475,257.19l-.86,11.13-.79,10.26a7.13,7.13,0,0,1-2.34,4.51c-3.53,3.39-3.29,9-3.29,9l-2.86,18.4c-4.43-4.44-7.92-21.56-7.92-21.56,0-6.33-3.8-7.92-3.8-7.92-11.1-4.12-19.34-14-19.34-14a19.21,19.21,0,0,0,1.38-2.5c2.94-6.24,4-15.18,4.41-20.87.23-3.27.23-5.48.23-5.48l23,12.44Z" fill="#f9b499"/><path d="M376.84,354.54s-1.12,8.66-2.57,15.66a40.77,40.77,0,0,0-.69,11.87c.73,8.38,3.4,21.21,12.67,27.51a9.26,9.26,0,0,0,10.22.19c5.41-3.47,12.7-12.57,12.47-36.41,0,0-2.62-36-1.09-53.55a11.8,11.8,0,0,1,1.77-5.27c2.68-4.29,8.21-14.52,8.21-26,0,0,9.26,1.48.37-6.3,0,0-5.56-3.71-7.78-2.22a4.85,4.85,0,0,0-6.67-.74s-2.22-6.3-7.41-4.08c0,0-10,.37-7,9.63,0,0,4.07,15.19.37,30l-5.42,36.27c-1.12.44-2.28.93-3.48,1.48C379.36,353.22,378.05,353.88,376.84,354.54Z" fill="#f9b499"/><path d="M431.45,280c3,1.17,5.76,2.58,8.56,4s5.55,2.85,8.32,4.44a34,34,0,0,1-8.94-3.22A40,40,0,0,1,431.45,280Z" opacity="0.2"/><path d="M476.05,282.62a4.87,4.87,0,0,1-.2,2.18,7.32,7.32,0,0,1-.93,2,6.19,6.19,0,0,1-3.45,2.59c.39-.65.81-1.18,1.19-1.73s.77-1.08,1.12-1.63C474.54,284.93,475.2,283.82,476.05,282.62Z" opacity="0.2"/><path d="M464.83,310.46c-.3,3.16-.51,6.33-.7,9.5s-.3,6.34-.32,9.51a99.27,99.27,0,0,0,1.21,18.9v.14a83.64,83.64,0,0,0,2.53,23.08l.76,2.82.85,2.79c.57,1.93,1,3.85,1.36,5.79a84.12,84.12,0,0,1,1.38,11.74,75.41,75.41,0,0,1-.33,11.83c-.18,2-.53,3.91-.88,5.85l-.66,2.88c-.2.91-.35,1.9-.5,2.85a100.74,100.74,0,0,0-1.15,11.61c-.08,3.86,0,7.84,1.33,11.42l0,0h0a45.35,45.35,0,0,1,1.12,11.31,32.54,32.54,0,0,1-.68,5.64,20.34,20.34,0,0,1-2,5.28,21,21,0,0,0,1.78-5.33,31.93,31.93,0,0,0,.49-5.6,43.66,43.66,0,0,0-.38-5.6,50,50,0,0,0-1-5.51v0c-1.5-3.77-1.61-7.81-1.62-11.73a92.47,92.47,0,0,1,1-11.76c.15-1,.28-1.93.49-2.94l.63-2.85c.34-1.91.67-3.82.84-5.75a75.25,75.25,0,0,0,.24-11.63,93.49,93.49,0,0,0-1.38-11.56c-.36-1.9-.76-3.83-1.28-5.66l-.85-2.82-.75-2.86a86.64,86.64,0,0,1-2-11.64,66.83,66.83,0,0,1-.31-11.84v.14a99.39,99.39,0,0,1-.85-19.1c.12-3.19.35-6.36.63-9.53S464.39,313.6,464.83,310.46Z" opacity="0.2"/><path d="M384.25,351.09c-1,3.23-2.28,6.32-3.45,9.44-.58,1.55-1.14,3.11-1.65,4.68a15,15,0,0,0-.87,4.85,9.5,9.5,0,0,1-.17-5.1,32.52,32.52,0,0,1,1.41-4.91A39.39,39.39,0,0,1,384.25,351.09Z" fill="#f7a48b"/><path d="M502.51,363.3a32.83,32.83,0,0,1,.23-9.23,33.51,33.51,0,0,1,2.64-8.92,43.42,43.42,0,0,0,2.75-8.56c.32-1.47.6-3,.79-4.47s.37-3,.54-4.55a39.49,39.49,0,0,1-.3,9.21,33.07,33.07,0,0,1-2.55,9,44,44,0,0,0-2.84,8.53,42.29,42.29,0,0,0-.81,4.47C502.72,360.25,502.6,361.76,502.51,363.3Z" opacity="0.2"/><path d="M526.59,368.69a81,81,0,0,1-5.85,9.53,80.06,80.06,0,0,1-7,8.75,91.65,91.65,0,0,1,12.82-18.28Z" fill="#f7a48b"/><g opacity="0.2"><path d="M393.53,574.69a18.92,18.92,0,0,0,2.11,1.76c.73.53,1.46,1,2.21,1.52s1.52,1,2.28,1.48a25.88,25.88,0,0,1,2.3,1.61,10.52,10.52,0,0,1-2.78-.65,13,13,0,0,1-2.55-1.3,10.53,10.53,0,0,1-2.18-1.88A5.67,5.67,0,0,1,393.53,574.69Z"/><path d="M389.39,580.1a49.21,49.21,0,0,0,5.28,3.5c.89.54,1.82,1,2.74,1.56s1.86,1,2.8,1.62a14.68,14.68,0,0,1-8.87-4A8.22,8.22,0,0,1,389.39,580.1Z"/><path d="M379.21,601.42a12.34,12.34,0,0,1,3.74.13,16.41,16.41,0,0,1,3.6,1.09,13.19,13.19,0,0,1,3.2,2.07,8.65,8.65,0,0,1,2.19,3.07,23.9,23.9,0,0,0-2.84-2.23,28.08,28.08,0,0,0-3.11-1.66A68.41,68.41,0,0,0,379.21,601.42Z"/></g><ellipse cx="254.73" cy="172.82" rx="6.17" ry="6.99" fill="#f9b499"/><path d="M253.33,163.46s-3.77,5.29,4.58,7.16c0,0,5.43,2.3,5.64,7.94l.83-18.38-6.68-5.42Z" fill="#2f2e41"/><path d="M541.35,300a18.53,18.53,0,0,1,8.55.24,16,16,0,0,1-4.29.38A16.87,16.87,0,0,1,541.35,300Z" fill="#f7a48b"/><path d="M475,257.19l-.86,11.13c-7.92,2.91-24.21,2.05-37.2-8.39a77.71,77.71,0,0,0,2.65-16.28l23.25,7Z" fill="#f7a48b"/><ellipse cx="462.14" cy="229.78" rx="24.89" ry="35.98" fill="#f9b499"/><ellipse cx="484.65" cy="234.06" rx="5.55" ry="8.24" fill="#f9b499"/><path d="M435.68,224.69l-1.75-14.12a16.45,16.45,0,0,1,12.48-18.28l.36-.08s4.43-13.63,26.31-5.39c0,0,19,3.49,18.07,23.46,0,0,.63,14.58-4.12,17.75,0,0,.21-9.52-6-21.51a1,1,0,0,0-1.18-.52c-1.48.41-4.84.74-7.71-3.33,0,0-9.37,2.48-12.44-1.29a2.31,2.31,0,0,0-1.87-.93,15.66,15.66,0,0,0-7,2,15.94,15.94,0,0,0-6.82,7.89,10.26,10.26,0,0,0-.84,4.47C443.22,217.18,442.58,222.31,435.68,224.69Z" fill="#2f2e41"/><ellipse cx="436.78" cy="231.84" rx="5.55" ry="8.24" fill="#f9b499"/><path d="M472.76,478.93a3.83,3.83,0,0,1,1.78,2.75,11,11,0,0,1,.17,3.28,15.22,15.22,0,0,1-1.95,6.12c0-1.1.14-2.14.25-3.18s.24-2,.34-3.07a27.8,27.8,0,0,0,.14-3A5.39,5.39,0,0,0,472.76,478.93Z" opacity="0.2"/><path d="M403.75,279.26a49.75,49.75,0,0,0-5.39,1.65,5.48,5.48,0,0,0-2.11,1.39,4.54,4.54,0,0,0-.94,2.47,3.3,3.3,0,0,1,.06-3.07,4.89,4.89,0,0,1,2.45-2.05,9.35,9.35,0,0,1,3-.67A8.51,8.51,0,0,1,403.75,279.26Z" fill="#f7a48b"/><path d="M410.42,280c-1,.52-2,1-2.93,1.44a30.12,30.12,0,0,0-2.77,1.46,5.22,5.22,0,0,0-2,1.89c-.41.76,0,1.78.53,2.75a3.73,3.73,0,0,1-1.25-1.19,2.44,2.44,0,0,1-.3-1.88,4.93,4.93,0,0,1,2.34-2.74,12.4,12.4,0,0,1,3.12-1.29A11.42,11.42,0,0,1,410.42,280Z" fill="#f7a48b"/><path d="M417.83,288.52a12.6,12.6,0,0,1-8.5-1.77,14.36,14.36,0,0,1,4.37.3A14.82,14.82,0,0,1,417.83,288.52Z" fill="#f7a48b"/><path d="M693,169.74c-1.53,19.1-11.33,34.54-23.39,38.7a19.58,19.58,0,0,1-8,1.05c-12-1-21.4-13.18-24.07-29.49a60,60,0,0,1-.59-14.78c1.87-23.2,15.94-41,31.42-39.76S694.85,146.53,693,169.74Z" fill="#f9b499"/><path d="M669.59,208.44l-.1,5.83s-23,4.91-27.87-21C641.62,193.28,650,214.42,669.59,208.44Z" fill="#f7a48b"/><path d="M693,160.72c0-3.45-1.71-11.11-1.71-11.11-.28,9.19-3.17,10-3.17,10l.29-8c-1.15-11.49-3.74-4-3.74-4l-1.78,9.39c-6,1-16.08-2.41-20.47-4.07a1.55,1.55,0,0,1-.59-2.5,21.21,21.21,0,0,0,2.78-3.79,2.09,2.09,0,0,0-2.18-3.05C651.63,145.1,636.7,172,636.7,172c1-5.24-2.28-14.43-2.28-14.43l-2.3,11.23,2.94,12.38-1.22,21.53c-12.35-6.9-14.08-20.41-14.08-20.41-3.45,11.5,2,30.74,2,30.74-16.09-13.78-12.35-40.51-12.35-40.51-9.2,8.34-7.76,37.63-7.76,37.63-11.5-29.58,2.3-55.45,2.3-55.45C591.89,157.27,591,179.11,591,179.11c-6.14-9.22-5.81-21.63-4.7-29.57a41.94,41.94,0,0,1,4.84-14.63c20-36.17,51.59-8.39,51.59-8.39a5.15,5.15,0,0,0,2.62,1.41,5.59,5.59,0,0,0,4.76-1.22c16.76-14.12,43.49,9.29,43.49,9.29C708,149.8,693,160.72,693,160.72Z" fill="#2f2e41"/><path d="M632.45,218.52s-40.33,21.61-53.09,53.1a43.08,43.08,0,0,0,11,48.06l.53.48a17.78,17.78,0,0,1,5.45,8.68c2.88,10.56,8.58,34.41,8.32,57.5,0,0,68.92-2.33,91.6-13.55a2.07,2.07,0,0,0,1.13-1.82,12.06,12.06,0,0,0-4.08-9.21,25.4,25.4,0,0,1-5.06-6.52c-3.71-7.16-5-11.89-5.75-25.48l9.26-24s7.88-12.69,5.48-30.86c0,0-.34-19.21-7.2-27.78l-15.77-24-53.84,36.69-7.29-5.56L601,252.94S608.85,236.9,632.45,218.52Z" fill="#F6AE84"/><path d="M613.1,254.25l7.29,5.56,50.28-34.27a4.23,4.23,0,0,1,5.92,1.18l14,21.34a23.7,23.7,0,0,1,3,6.72c2.59,9.28,7.76,33.28-1.87,51l-9.26,24s-1.8,19.3,11.1,32.28c0,0,3.54,9.31,15.76,8.34a14.7,14.7,0,0,0,9.15-4.27l23-23s5.48-5.83,6.17-16.8l.34-21.26s-1-12-13.37-13.71c0,0-27.43-9.61-22.63-33.95,0,0-1-3.91,5.3-8a25.9,25.9,0,0,0,9.64-11.47c3.45-8,5.22-19.51-7.51-26.64a18.26,18.26,0,0,0-7.61-2.18c-10.16-.73-38.58-2.09-42.28,5.16C669.49,214.27,650.73,219.55,613.1,254.25Z" fill="#2f2e41"/><path d="M646.45,299.59a134.86,134.86,0,0,1,2.07-22.31,95.93,95.93,0,0,1,2.57-10.94,66,66,0,0,1,4-10.54,32.55,32.55,0,0,1,6.67-9.19A16.45,16.45,0,0,1,672.15,242a22.51,22.51,0,0,1,11,2.58,47.94,47.94,0,0,1,9.26,6.32,52.83,52.83,0,0,0-9.54-5.71A21.58,21.58,0,0,0,672.23,243a15.47,15.47,0,0,0-5.17,1.41,17.43,17.43,0,0,0-4.42,3.07,31,31,0,0,0-6.29,8.9c-3.33,6.57-5.27,13.81-6.8,21.06-.76,3.64-1.37,7.31-1.87,11S646.75,295.87,646.45,299.59Z" opacity="0.2"/><path d="M590.89,320.19c2.6,1,5.21,2,7.82,3s5.22,1.86,7.87,2.68,5.31,1.55,8,2.2a82.21,82.21,0,0,0,8.21,1.38,37,37,0,0,1-8.41-.33,62.37,62.37,0,0,1-8.21-1.94A67,67,0,0,1,590.89,320.19Z" opacity="0.2"/><path d="M626.22,340.73a16.53,16.53,0,0,1-7.11,1.14,31.41,31.41,0,0,1-7.16-1.1,45.05,45.05,0,0,1-6.79-2.45c-1.08-.53-2.15-1.07-3.21-1.64s-2.05-1.23-3.05-1.9c1.14.4,2.23.87,3.34,1.29l3.33,1.26c2.23.75,4.45,1.55,6.73,2.12a46.13,46.13,0,0,0,6.89,1.36,31.46,31.46,0,0,0,3.5.21A15.54,15.54,0,0,0,626.22,340.73Z" opacity="0.2"/><path d="M689.3,186s8.05-1.15,13.22-5.46c0,0-6.32,8.05-8.91,10.64,0,0,13.8,0,17.25-6,0,0-5,20.55-29.46,14.81C681.4,200,685.55,195.79,689.3,186Z" fill="#2f2e41"/><ellipse cx="636.54" cy="169.51" rx="8.03" ry="12.29" fill="#f9b499"/><path d="M691.72,305.76l-9.27,24c-9.65,26.49-21.1,37.78-26.71,42a7.9,7.9,0,0,1-10.35-.67,24.57,24.57,0,0,1-5.06-8.61,11.43,11.43,0,0,0-2.42-3.88c-15.41-16.4-23.73-62.8-25.43-73.12a2.62,2.62,0,0,0-2.31-2.2c-5.39-.65-19.6-3.59-16.52-17,0,0-1-.57-2.23-1.5-3.11-2.23-8-6.5-4.88-9.21a4.39,4.39,0,0,1,2.84-1h11.81s6.34-3.62,14.78,0a21.59,21.59,0,0,1,8.24,6.39l4.46,5.54a37.71,37.71,0,0,1,5.46,9.19l11,26.22C675.25,286.55,691.72,305.76,691.72,305.76Z" fill="#f9b499"/><path d="M743.22,589.21a3.22,3.22,0,0,1-5.63.12c-1.22-2.09-2.29-5.92-2.63-12.85,0,0,.75-22-13.57-29.46a16,16,0,0,0-5.87-1.59c-2.89-.26-7.71-1.32-6.89-5.4l3.26-.49s9.81-7.8,2-27.67c0,0,17.45-10.84,27.13-8.68a7.2,7.2,0,0,1,4.91,3.41,8.22,8.22,0,0,1,.88,5.49c-.88,5.4-3,21.1.21,28a15.74,15.74,0,0,1,1,3.09C749.59,550,753.09,570.65,743.22,589.21Z" fill="#F6AE84"/><path d="M740.18,591v0a3.18,3.18,0,0,0,3-1.71c9.87-18.56,6.37-39.18,4.79-46a15.74,15.74,0,0,0-1-3.09c-3.24-6.93-1.09-22.63-.21-28a8.22,8.22,0,0,0-.88-5.49,7.2,7.2,0,0,0-4.91-3.41l0-.2s11.29-1.16,11,9c0,0-1.14,24,2.6,37.32C754.63,549.28,762.74,596.15,740.18,591Z" fill="#2f2e41"/><path d="M645.08,302c2.2,3,4.28,6.07,6.33,9.16s4.15,6.14,5.91,9.5A40.21,40.21,0,0,1,661,331.28a43.83,43.83,0,0,1,.69,5.58,43.4,43.4,0,0,1-.13,5.59A56.28,56.28,0,0,0,660,331.51a49,49,0,0,0-3.85-10.24c-.82-1.64-1.76-3.19-2.74-4.78s-1.92-3.17-2.84-4.78C648.65,308.5,646.8,305.28,645.08,302Z" fill="#f7a48b"/><path d="M591.45,264.81h0c-3.11-2.23-8-6.5-4.88-9.21a4.39,4.39,0,0,1,2.84-1S586.28,259,591.45,264.81Z" fill="#f7a48b"/><path d="M666.65,379.8a58.13,58.13,0,0,1,9.5,21,36,36,0,0,1,.69,11.63,27.76,27.76,0,0,1-3.74,11.09,25.53,25.53,0,0,1-1.69,2.42l-.92,1.15-1,1.08c-1.3,1.45-2.92,2.66-4.26,3.91a40.41,40.41,0,0,0-6.49,9.22,44,44,0,0,0-4,10.64,42.59,42.59,0,0,0-1.17,11.38,41.14,41.14,0,0,1,4.25-22.49,42,42,0,0,1,2.9-5.05,29.17,29.17,0,0,1,3.67-4.6c1.45-1.38,2.92-2.49,4.17-3.91l1-1,.86-1.11a24.26,24.26,0,0,0,1.59-2.31,26.4,26.4,0,0,0,3.67-10.53,37.5,37.5,0,0,0-.48-11.28,53.44,53.44,0,0,0-3.3-10.92A67.77,67.77,0,0,0,666.65,379.8Z" opacity="0.2"/><path d="M706.59,389.49a12,12,0,0,0-3.79,2.12,9,9,0,0,0-2.61,3.27,12.45,12.45,0,0,0-.32,8.2,16.09,16.09,0,0,0,1.67,3.89c.69,1.22,1.62,2.39,2.42,3.62s1.67,2.43,2.53,3.62,1.7,2.41,2.55,3.62a65.1,65.1,0,0,1-5.92-6.61,42.86,42.86,0,0,1-2.69-3.58,16.8,16.8,0,0,1-1.88-4.19,13.51,13.51,0,0,1-.41-2.27,11.85,11.85,0,0,1-.1-2.31,9.91,9.91,0,0,1,1.22-4.47A10.1,10.1,0,0,1,706.59,389.49Z" opacity="0.2"/><path d="M646.23,382.87a11.34,11.34,0,0,0-2.29,3.78,5.79,5.79,0,0,0-.33,2.13,4.09,4.09,0,0,0,.69,2,7.1,7.1,0,0,0,3.38,2.51,32.3,32.3,0,0,1,4.07,2.05,7.62,7.62,0,0,1,1.89,1.53,2.43,2.43,0,0,1,.37.66,1.34,1.34,0,0,1,0,1,2,2,0,0,1-1.2,1,10.3,10.3,0,0,1-2.35.47,19.09,19.09,0,0,0-2.14.35,14.31,14.31,0,0,0-4,1.57,4,4,0,0,0-1.41,1.24c-.23.42-.12.77.33,1.23a10.45,10.45,0,0,0,3.64,2c1.37.51,2.82,1,4.21,1.61a82.45,82.45,0,0,1,8.19,3.84,49.88,49.88,0,0,1,7.59,4.94,21.71,21.71,0,0,1,3.2,3.23A8.84,8.84,0,0,1,672,424c-.84-2.93-3.18-5-5.54-6.76a50.8,50.8,0,0,0-7.66-4.54c-2.68-1.29-5.4-2.53-8.18-3.61-1.39-.55-2.76-1-4.2-1.55a11.3,11.3,0,0,1-4.18-2.29,2.72,2.72,0,0,1-.73-1.25,2,2,0,0,1,.23-1.56,5.06,5.06,0,0,1,1.91-1.72A15.85,15.85,0,0,1,648,399a22.59,22.59,0,0,1,2.29-.34,8.67,8.67,0,0,0,2.06-.37,1.08,1.08,0,0,0,.55-.33s0-.2-.18-.45a6.69,6.69,0,0,0-1.55-1.35,31.47,31.47,0,0,0-3.87-2.15,7.81,7.81,0,0,1-3.58-2.94,4.72,4.72,0,0,1-.63-2.29,6,6,0,0,1,.5-2.26A10.71,10.71,0,0,1,646.23,382.87Z" opacity="0.2"/><path d="M610.27,420.45c1,.7,2,1.41,2.92,2.12s1.89,1.42,2.86,2.07a26.65,26.65,0,0,0,6.17,3.37,8.39,8.39,0,0,1-3.67-.52,14.9,14.9,0,0,1-3.28-1.73,18.73,18.73,0,0,1-2.78-2.39A14.34,14.34,0,0,1,610.27,420.45Z" opacity="0.2"/><path d="M608.08,453.23A103.73,103.73,0,0,1,613,441.58a101.93,101.93,0,0,1,6.11-11.06,100.14,100.14,0,0,1-4.88,11.65A101.93,101.93,0,0,1,608.08,453.23Z" opacity="0.2"/><path d="M644.11,154.73s-5.63-11-1.36-28.21a5.15,5.15,0,0,0,2.62,1.41,5.59,5.59,0,0,0,4.76-1.22S641.34,142.64,644.11,154.73Z" opacity="0.2"/></svg>